<svg id="svg" version="1.1" xmlns="http://www.w3.org/2000/svg" xmlns:xlink="http://www.w3.org/1999/xlink" width="400" height="400" viewBox="0, 0, 400,400"><g id="svgg"><path id="path0" d="M173.967 136.406 C 174.102 136.828,173.922 137.151,173.471 137.294 C 173.082 137.417,172.110 138.301,171.311 139.257 C 170.512 140.212,169.653 140.955,169.402 140.907 C 169.151 140.860,168.992 141.104,169.048 141.452 C 169.105 141.799,168.841 142.326,168.462 142.624 C 167.822 143.126,167.815 143.109,168.359 142.383 C 168.906 141.654,168.899 141.638,168.244 142.152 C 167.858 142.455,167.636 142.948,167.751 143.247 C 167.866 143.546,167.798 143.691,167.600 143.568 C 167.134 143.280,165.974 144.930,166.288 145.437 C 166.419 145.650,166.340 145.708,166.111 145.567 C 165.341 145.091,158.504 157.294,157.681 160.614 C 157.382 161.820,157.012 165.382,157.292 164.355 C 157.395 163.979,157.764 163.672,158.111 163.672 C 158.635 163.672,158.613 163.576,157.985 163.111 C 157.477 162.735,157.420 162.586,157.813 162.661 C 159.003 162.888,159.754 163.374,159.514 163.763 C 159.375 163.987,159.505 164.081,159.809 163.975 C 160.107 163.871,160.579 164.156,160.856 164.608 C 161.343 165.401,161.353 165.396,161.130 164.453 C 160.942 163.654,160.976 163.596,161.316 164.137 C 161.557 164.521,162.070 164.731,162.541 164.641 C 163.192 164.515,163.263 164.590,162.903 165.024 C 162.544 165.457,162.603 165.525,163.201 165.369 C 163.611 165.261,164.240 165.468,164.600 165.828 C 164.966 166.194,165.532 166.375,165.886 166.240 C 166.416 166.036,166.437 166.094,166.016 166.602 C 165.589 167.116,165.619 167.165,166.220 166.935 C 166.705 166.749,166.837 166.807,166.643 167.121 C 166.487 167.372,166.546 167.578,166.774 167.578 C 167.001 167.578,167.188 167.408,167.188 167.200 C 167.188 166.992,167.456 166.924,167.783 167.050 C 168.222 167.218,168.269 167.412,167.960 167.784 C 167.668 168.135,167.665 168.367,167.950 168.543 C 168.175 168.682,168.362 168.654,168.365 168.480 C 168.369 168.306,168.561 168.428,168.793 168.750 C 169.149 169.245,169.180 169.229,168.994 168.652 C 168.734 167.844,168.800 167.830,170.099 168.422 C 170.646 168.671,171.094 169.131,171.094 169.444 C 171.094 169.826,171.358 169.944,171.897 169.803 C 172.562 169.629,172.620 169.690,172.233 170.157 C 171.851 170.617,171.884 170.675,172.411 170.473 C 172.766 170.337,173.352 170.464,173.713 170.757 C 174.277 171.215,174.320 171.207,174.023 170.703 C 173.737 170.217,173.780 170.200,174.277 170.602 C 174.607 170.869,175.020 170.957,175.196 170.797 C 175.372 170.638,175.389 170.728,175.235 170.996 C 175.079 171.267,175.154 171.484,175.404 171.484 C 175.651 171.484,176.288 171.826,176.819 172.244 C 177.350 172.661,178.021 172.912,178.310 172.801 C 178.622 172.682,178.952 172.967,179.122 173.500 L 179.407 174.401 179.747 173.484 C 180.009 172.776,180.205 172.666,180.606 172.999 C 180.892 173.236,181.270 173.300,181.446 173.141 C 181.622 172.982,181.649 173.055,181.507 173.305 C 181.016 174.162,181.696 175.080,182.682 174.892 C 183.194 174.794,183.706 174.866,183.821 175.052 C 183.936 175.238,183.844 175.391,183.617 175.391 C 183.389 175.391,183.203 175.542,183.203 175.727 C 183.203 175.912,183.799 176.016,184.527 175.958 C 185.548 175.877,185.952 176.046,186.297 176.696 C 186.565 177.203,186.664 177.263,186.544 176.846 C 186.377 176.263,186.467 176.219,187.118 176.567 C 187.543 176.795,187.891 177.073,187.891 177.185 C 187.891 177.298,187.715 177.281,187.500 177.148 C 187.285 177.016,187.109 177.060,187.109 177.247 C 187.109 177.434,187.988 177.812,189.063 178.087 C 190.137 178.363,191.016 178.758,191.016 178.965 C 191.016 179.173,191.179 179.242,191.379 179.118 C 191.579 178.995,191.859 179.081,192.000 179.309 C 192.176 179.594,192.455 179.565,192.883 179.218 C 193.398 178.801,193.454 178.802,193.200 179.226 C 192.992 179.572,193.159 179.810,193.711 179.955 C 194.166 180.074,194.531 180.486,194.531 180.882 C 194.531 181.274,194.705 181.702,194.917 181.833 C 195.148 181.976,195.200 181.789,195.046 181.368 C 194.801 180.696,194.825 180.695,195.571 181.349 C 196.001 181.725,196.461 181.925,196.593 181.793 C 196.725 181.661,197.176 182.116,197.595 182.806 C 198.243 183.871,198.411 183.963,198.715 183.420 C 199.154 182.634,200.268 182.982,200.593 184.006 C 200.774 184.577,201.098 184.697,202.073 184.552 C 202.759 184.451,203.102 184.471,202.836 184.598 C 202.275 184.864,203.129 185.938,203.901 185.938 C 204.144 185.938,204.234 186.113,204.102 186.328 C 203.969 186.543,204.032 186.719,204.241 186.719 C 204.451 186.719,204.711 186.499,204.819 186.230 C 204.937 185.939,205.029 186.017,205.047 186.426 C 205.083 187.226,205.243 187.258,206.323 186.680 C 206.947 186.345,207.059 186.359,206.823 186.739 C 206.641 187.034,206.816 187.458,207.265 187.807 C 207.881 188.287,207.893 188.347,207.337 188.156 C 206.968 188.029,206.554 188.106,206.416 188.328 C 206.254 188.591,206.791 188.675,207.961 188.571 C 209.368 188.445,209.667 188.516,209.347 188.901 C 209.034 189.277,209.141 189.339,209.804 189.166 C 210.280 189.041,210.570 189.099,210.450 189.294 C 210.329 189.489,210.870 189.648,211.651 189.648 C 212.859 189.648,213.072 189.779,213.079 190.522 C 213.083 191.003,213.174 191.369,213.281 191.335 C 213.389 191.302,213.868 191.484,214.347 191.740 C 215.071 192.128,215.180 192.111,214.999 191.639 C 214.880 191.327,214.444 191.137,214.032 191.217 C 213.619 191.296,213.281 191.196,213.281 190.993 C 213.281 190.791,213.467 190.625,213.695 190.625 C 213.922 190.625,213.980 190.405,213.823 190.137 C 213.666 189.868,213.963 190.000,214.484 190.430 C 215.704 191.437,216.011 191.879,215.766 192.276 C 215.656 192.453,215.715 192.549,215.896 192.490 C 216.078 192.431,216.645 192.772,217.157 193.248 C 217.668 193.724,218.266 194.003,218.485 193.868 C 218.716 193.725,218.789 193.866,218.659 194.204 C 218.418 194.832,219.346 194.933,220.248 194.376 C 220.527 194.204,220.861 194.168,220.990 194.297 C 221.118 194.426,220.997 194.531,220.720 194.531 C 220.319 194.531,220.315 194.649,220.700 195.113 C 220.965 195.433,221.338 195.598,221.529 195.480 C 221.719 195.363,221.875 195.465,221.875 195.708 C 221.875 196.563,222.897 197.259,223.408 196.752 C 223.769 196.394,223.810 196.458,223.590 197.037 C 223.391 197.559,223.443 197.699,223.762 197.502 C 224.013 197.347,224.219 197.424,224.219 197.675 C 224.219 197.925,224.470 198.034,224.776 197.917 C 225.083 197.799,225.547 197.960,225.808 198.274 C 226.202 198.750,226.158 198.803,225.544 198.589 C 224.859 198.351,224.862 198.377,225.582 198.936 C 226.009 199.268,226.492 199.457,226.656 199.356 C 226.819 199.255,226.953 199.369,226.953 199.609 C 226.953 199.850,227.117 199.945,227.317 199.821 C 227.517 199.698,227.786 199.768,227.915 199.977 C 228.044 200.186,228.452 200.260,228.821 200.141 C 229.379 199.963,229.395 199.995,228.917 200.333 C 228.421 200.684,228.434 200.774,229.013 200.996 C 229.381 201.138,229.600 201.388,229.499 201.552 C 229.397 201.716,229.690 201.829,230.150 201.804 C 230.609 201.779,231.060 201.978,231.150 202.246 C 231.258 202.566,231.068 202.657,230.599 202.510 C 229.907 202.292,229.907 202.300,230.596 202.741 C 230.988 202.991,231.410 203.095,231.534 202.972 C 231.657 202.848,232.009 203.051,232.315 203.424 C 232.620 203.797,232.769 203.898,232.646 203.650 C 232.476 203.308,232.658 203.308,233.395 203.650 C 233.931 203.898,234.384 204.365,234.403 204.688 C 234.426 205.089,234.499 205.120,234.634 204.785 C 234.742 204.517,235.002 204.297,235.212 204.297 C 235.421 204.297,235.477 204.484,235.335 204.714 C 235.194 204.943,235.315 205.098,235.605 205.058 C 236.678 204.911,237.063 205.098,237.314 205.888 C 237.463 206.357,237.793 206.612,238.101 206.493 C 238.434 206.366,238.556 206.489,238.427 206.825 C 238.281 207.206,238.508 207.328,239.217 207.250 C 239.765 207.190,240.119 207.292,240.005 207.477 C 239.891 207.661,240.160 207.813,240.602 207.813 C 241.044 207.813,241.406 207.999,241.406 208.226 C 241.406 208.454,241.203 208.514,240.955 208.361 C 240.674 208.187,240.610 208.254,240.787 208.540 C 240.942 208.791,241.219 208.905,241.402 208.792 C 241.584 208.679,241.968 208.818,242.254 209.100 C 242.540 209.383,243.081 209.731,243.457 209.873 C 243.833 210.015,244.141 210.411,244.141 210.753 C 244.141 211.095,244.316 211.266,244.531 211.133 C 244.746 211.000,244.922 211.147,244.922 211.459 C 244.922 211.771,245.186 212.127,245.508 212.251 C 245.830 212.374,246.094 212.279,246.094 212.039 C 246.094 211.798,246.622 212.331,247.268 213.223 C 247.914 214.114,248.556 214.844,248.696 214.844 C 248.835 214.844,248.637 214.499,248.255 214.077 C 247.577 213.328,247.584 213.321,248.546 213.775 C 249.150 214.060,249.481 214.498,249.401 214.910 C 249.317 215.346,249.459 215.508,249.808 215.374 C 250.102 215.261,250.572 215.535,250.851 215.983 C 251.131 216.431,251.581 216.797,251.852 216.797 C 252.122 216.797,252.300 217.009,252.246 217.267 C 252.152 217.719,252.368 217.812,253.753 217.920 C 254.152 217.951,254.296 218.190,254.148 218.575 C 254.020 218.908,254.071 219.085,254.260 218.968 C 254.450 218.850,254.701 219.004,254.818 219.308 C 254.956 219.669,255.344 219.780,255.933 219.629 C 256.769 219.413,256.793 219.449,256.250 220.117 C 255.708 220.784,255.731 220.821,256.546 220.611 C 257.162 220.453,257.593 220.620,257.976 221.167 C 258.354 221.707,258.770 221.872,259.316 221.698 C 259.881 221.519,260.232 221.677,260.537 222.247 C 260.772 222.687,261.179 223.044,261.440 223.041 C 261.738 223.037,261.696 222.894,261.328 222.656 C 261.006 222.448,260.940 222.275,261.183 222.272 C 261.425 222.268,261.864 222.563,262.159 222.927 C 262.523 223.376,262.539 223.493,262.207 223.294 C 261.897 223.108,261.719 223.231,261.719 223.633 C 261.719 223.980,261.880 224.165,262.076 224.044 C 262.273 223.923,262.522 224.044,262.631 224.314 C 262.770 224.658,262.838 224.633,262.860 224.229 C 262.881 223.840,263.092 223.942,263.517 224.549 C 263.877 225.063,264.384 225.351,264.709 225.226 C 265.025 225.105,265.169 225.180,265.036 225.395 C 264.905 225.607,264.984 225.781,265.211 225.781 C 265.439 225.781,265.637 226.089,265.652 226.465 C 265.676 227.049,265.729 227.035,266.016 226.367 C 266.200 225.938,266.364 225.809,266.379 226.082 C 266.396 226.395,266.769 226.512,267.391 226.399 C 267.957 226.297,268.277 226.379,268.145 226.593 C 268.018 226.798,267.734 226.854,267.512 226.717 C 267.267 226.565,267.283 226.792,267.553 227.297 C 267.797 227.752,268.088 228.125,268.201 228.125 C 268.313 228.125,268.304 227.961,268.181 227.761 C 268.057 227.561,268.135 227.287,268.353 227.152 C 268.571 227.017,268.762 227.137,268.777 227.418 C 268.793 227.700,268.956 227.578,269.141 227.148 C 269.458 226.410,269.478 226.417,269.504 227.269 C 269.519 227.765,269.676 228.082,269.852 227.973 C 270.029 227.864,270.644 228.019,271.219 228.317 C 271.795 228.616,272.268 228.739,272.272 228.590 C 272.275 228.442,272.435 228.568,272.626 228.871 C 272.935 229.359,273.560 229.542,275.307 229.655 C 275.687 229.680,275.707 229.877,275.391 230.469 C 274.926 231.338,275.359 231.516,276.110 230.765 C 276.496 230.379,276.665 230.393,276.938 230.835 C 277.156 231.187,277.992 231.401,279.229 231.418 C 280.300 231.434,281.107 231.334,281.022 231.197 C 280.937 231.060,281.147 230.717,281.487 230.434 C 282.008 230.002,282.166 230.026,282.479 230.585 C 282.884 231.309,284.375 231.507,284.375 230.836 C 284.375 230.609,284.199 230.531,283.984 230.664 C 283.770 230.797,283.594 230.621,283.594 230.273 C 283.594 229.926,283.731 229.726,283.898 229.830 C 284.267 230.058,284.229 228.240,283.857 227.867 C 283.712 227.723,283.594 227.213,283.594 226.735 C 283.594 224.566,279.090 209.606,278.539 209.946 C 278.419 210.021,278.293 209.703,278.260 209.240 C 278.227 208.777,277.827 207.607,277.371 206.641 C 276.915 205.674,276.629 205.190,276.735 205.566 C 277.092 206.825,276.585 206.268,275.593 204.310 C 274.589 202.330,274.232 200.816,275.036 201.953 C 275.404 202.474,275.432 202.474,275.290 201.953 C 275.202 201.631,274.902 201.367,274.623 201.367 C 274.344 201.367,273.396 200.011,272.516 198.353 C 271.332 196.123,270.831 195.489,270.590 195.919 C 270.411 196.239,270.080 196.387,269.854 196.247 C 269.629 196.108,269.284 196.236,269.089 196.532 C 268.847 196.898,268.792 196.718,268.916 195.971 C 269.039 195.224,268.948 194.926,268.631 195.043 C 268.374 195.137,268.221 195.457,268.290 195.752 C 268.360 196.047,268.008 195.853,267.509 195.320 C 267.010 194.787,266.655 194.186,266.721 193.984 C 266.787 193.783,266.567 193.845,266.233 194.122 C 265.723 194.546,265.625 194.518,265.625 193.951 C 265.625 193.527,265.418 193.355,265.068 193.490 C 264.458 193.724,263.521 192.859,263.936 192.445 C 264.077 192.303,264.017 192.188,263.802 192.188 C 263.587 192.188,263.289 192.310,263.140 192.459 C 262.628 192.971,261.719 192.900,261.719 192.348 C 261.719 192.045,261.464 191.797,261.152 191.797 C 260.841 191.797,260.407 191.489,260.188 191.113 C 259.969 190.737,259.784 190.566,259.778 190.732 C 259.771 190.898,259.326 190.746,258.789 190.394 C 258.106 189.946,257.813 189.898,257.813 190.233 C 257.813 190.496,257.448 190.297,257.001 189.789 C 256.555 189.282,256.318 189.112,256.473 189.412 C 256.671 189.793,256.387 189.738,255.527 189.230 C 254.850 188.830,254.297 188.355,254.297 188.174 C 254.297 187.993,254.119 187.954,253.902 188.088 C 253.099 188.585,251.603 186.963,252.281 186.330 C 252.809 185.837,252.852 185.849,252.630 186.426 C 252.345 187.169,252.933 187.737,253.327 187.099 C 253.759 186.400,252.724 185.460,252.097 185.981 C 251.736 186.280,251.563 186.289,251.563 186.008 C 251.563 185.779,251.211 185.659,250.781 185.742 C 250.294 185.836,250.000 185.682,250.000 185.334 C 250.000 184.253,248.743 183.179,248.094 183.706 C 247.605 184.103,247.555 184.060,247.787 183.441 C 248.034 182.784,247.990 182.763,247.395 183.246 C 246.951 183.606,246.824 183.624,247.018 183.301 C 247.276 182.872,247.069 182.747,246.253 182.839 C 246.127 182.853,245.781 182.545,245.485 182.155 C 245.189 181.765,244.941 181.599,244.934 181.786 C 244.927 181.974,244.660 181.910,244.340 181.644 C 244.020 181.379,243.855 181.006,243.973 180.815 C 244.090 180.625,243.990 180.469,243.750 180.469 C 243.510 180.469,243.433 180.275,243.579 180.039 C 243.760 179.746,243.574 179.754,242.993 180.065 C 242.255 180.460,242.157 180.426,242.262 179.811 C 242.336 179.375,242.177 179.145,241.847 179.215 C 241.481 179.293,241.394 179.111,241.574 178.641 C 241.719 178.263,241.713 178.078,241.560 178.231 C 241.408 178.384,241.063 178.326,240.793 178.103 C 240.454 177.821,240.226 177.823,240.049 178.109 C 239.761 178.575,238.672 177.682,238.672 176.981 C 238.672 176.751,238.477 176.563,238.239 176.563 C 238.002 176.563,237.905 176.308,238.024 175.996 C 238.169 175.618,238.054 175.502,237.675 175.648 C 237.364 175.767,237.109 176.034,237.109 176.241 C 237.109 176.449,236.523 175.997,235.807 175.238 L 234.505 173.857 234.505 175.027 C 234.505 175.671,234.274 176.412,233.992 176.673 C 233.710 176.935,233.581 176.964,233.706 176.739 C 233.831 176.514,233.769 176.075,233.568 175.763 C 233.124 175.072,233.365 177.443,234.018 180.198 C 234.263 181.231,234.367 182.558,234.250 183.146 C 234.132 183.735,234.216 184.472,234.437 184.784 C 234.750 185.226,234.783 185.178,234.584 184.570 C 234.406 184.026,234.453 183.912,234.739 184.195 C 235.014 184.468,235.026 185.045,234.774 185.953 C 234.420 187.233,234.434 187.263,235.026 186.523 C 235.546 185.874,235.612 185.859,235.413 186.435 C 235.058 187.464,236.702 191.651,237.192 190.965 C 237.487 190.551,237.525 190.582,237.357 191.104 C 237.239 191.474,237.400 192.397,237.716 193.154 C 238.233 194.390,238.229 194.531,237.678 194.531 C 237.308 194.531,237.176 194.349,237.346 194.074 C 237.538 193.763,237.411 193.700,236.947 193.879 C 235.479 194.442,228.216 190.812,224.806 187.810 C 217.765 181.612,214.161 169.948,216.214 159.998 C 216.434 158.928,216.401 158.551,216.103 158.735 C 215.845 158.894,215.629 158.584,215.554 157.947 C 215.486 157.369,215.166 156.825,214.844 156.739 C 214.377 156.613,214.364 156.656,214.779 156.947 C 215.185 157.232,215.120 157.361,214.486 157.527 C 214.037 157.644,213.769 157.580,213.890 157.385 C 214.010 157.191,213.939 157.031,213.731 157.031 C 213.524 157.031,213.447 156.676,213.561 156.242 C 213.749 155.522,213.667 155.488,212.645 155.853 C 211.568 156.239,211.554 156.229,212.305 155.614 C 212.926 155.104,212.948 155.021,212.413 155.205 C 212.015 155.342,211.536 155.164,211.241 154.769 C 210.623 153.942,209.835 153.753,209.200 154.280 C 208.935 154.500,208.596 154.560,208.448 154.411 C 208.300 154.263,208.580 153.927,209.070 153.664 C 209.911 153.212,209.885 153.190,208.594 153.253 C 207.842 153.290,207.079 153.496,206.900 153.711 C 206.712 153.935,206.650 153.745,206.754 153.266 C 206.854 152.806,206.765 152.191,206.556 151.899 C 206.266 151.493,206.228 151.529,206.396 152.051 C 206.669 152.899,206.290 152.939,205.695 152.125 C 205.450 151.789,204.675 151.499,203.973 151.479 C 203.049 151.453,202.755 151.292,202.906 150.896 C 203.022 150.596,202.943 150.457,202.731 150.588 C 201.960 151.064,200.755 151.140,201.030 150.694 C 201.206 150.410,201.073 150.345,200.650 150.507 C 199.675 150.881,199.867 150.186,200.879 149.679 C 201.687 149.275,201.664 149.257,200.586 149.456 C 199.666 149.626,199.540 149.579,200.000 149.238 C 200.461 148.897,200.336 148.849,199.414 149.014 C 198.770 149.129,198.462 149.120,198.730 148.993 C 198.999 148.867,199.219 148.510,199.219 148.201 C 199.219 147.733,199.053 147.747,198.236 148.282 C 197.338 148.871,197.273 148.872,197.495 148.294 C 197.629 147.946,197.939 147.781,198.185 147.929 C 198.432 148.076,198.392 147.899,198.097 147.536 C 197.455 146.745,197.101 146.711,196.415 147.373 C 195.943 147.827,195.410 147.912,194.629 147.659 C 194.468 147.607,194.216 147.580,194.071 147.601 C 193.925 147.621,193.883 147.207,193.979 146.681 C 194.111 145.949,194.013 145.777,193.564 145.949 C 193.220 146.081,192.872 145.905,192.726 145.526 C 192.589 145.169,192.256 144.962,191.986 145.066 C 191.670 145.187,191.560 145.005,191.677 144.556 C 191.866 143.836,190.859 143.169,190.199 143.576 C 190.004 143.697,189.844 143.600,189.844 143.359 C 189.844 143.119,189.668 143.031,189.453 143.164 C 189.238 143.297,189.063 143.212,189.063 142.975 C 189.063 142.738,188.767 142.596,188.405 142.659 C 187.978 142.733,187.662 142.430,187.504 141.797 C 187.262 140.825,187.259 140.825,187.026 141.699 C 186.897 142.183,186.556 142.575,186.267 142.572 C 185.840 142.567,185.844 142.502,186.284 142.223 C 186.727 141.942,186.674 141.716,185.995 140.988 C 185.538 140.497,185.047 140.213,184.903 140.357 C 184.760 140.501,184.396 140.414,184.096 140.165 C 183.795 139.916,183.604 139.873,183.669 140.071 C 183.735 140.268,183.613 140.462,183.398 140.502 C 183.184 140.541,183.057 140.332,183.117 140.037 C 183.183 139.712,182.922 139.523,182.454 139.558 C 181.868 139.602,181.782 139.739,182.099 140.121 C 182.401 140.484,182.389 140.625,182.059 140.625 C 181.806 140.625,181.411 140.083,181.180 139.421 C 180.861 138.504,180.580 138.263,180.005 138.414 C 179.562 138.529,179.161 138.381,179.036 138.056 C 178.919 137.750,178.655 137.500,178.451 137.500 C 178.246 137.500,178.188 137.676,178.320 137.891 C 178.453 138.105,178.359 138.281,178.111 138.281 C 177.864 138.281,177.570 137.934,177.459 137.509 C 177.301 136.905,177.106 136.818,176.558 137.112 C 176.042 137.388,175.799 137.328,175.628 136.882 C 175.500 136.550,175.199 136.400,174.959 136.549 C 174.719 136.697,174.349 136.577,174.138 136.281 C 173.838 135.859,173.801 135.886,173.967 136.406 M216.106 164.453 C 216.106 165.205,216.187 165.513,216.285 165.137 C 216.383 164.761,216.383 164.146,216.285 163.770 C 216.187 163.394,216.106 163.701,216.106 164.453 M241.701 255.273 C 241.804 255.811,241.955 256.250,242.038 256.250 C 242.120 256.250,242.188 255.811,242.188 255.273 C 242.188 254.736,242.036 254.297,241.851 254.297 C 241.666 254.297,241.599 254.736,241.701 255.273 " stroke="none" fill="#7654eb" fill-rule="evenodd"></path><path id="path1" d="M139.844 216.033 C 124.897 217.378,112.773 223.889,104.721 234.894 C 102.645 237.731,102.664 237.745,106.882 236.513 C 119.408 232.853,128.716 235.871,144.883 248.836 C 156.056 257.796,157.257 258.690,161.838 261.468 C 176.669 270.462,193.600 273.474,210.151 270.064 C 216.432 268.770,228.884 263.803,228.284 262.832 C 228.117 262.561,228.175 262.485,228.428 262.641 C 228.939 262.957,231.641 261.735,231.641 261.189 C 231.641 260.977,231.905 260.512,232.227 260.156 C 232.755 259.573,232.720 259.458,231.884 259.010 C 231.302 258.699,231.019 258.263,231.128 257.846 C 231.243 257.407,230.948 257.019,230.261 256.706 C 229.541 256.378,229.295 256.037,229.463 255.600 C 229.660 255.086,229.600 255.055,229.141 255.436 C 228.671 255.826,228.610 255.753,228.776 255.003 C 228.919 254.353,228.869 254.249,228.598 254.632 C 228.336 255.002,228.142 255.031,227.955 254.729 C 227.809 254.491,227.808 254.297,227.954 254.297 C 228.101 254.297,228.002 254.033,227.734 253.711 C 227.467 253.389,226.735 253.125,226.107 253.125 C 225.421 253.125,224.991 252.930,225.029 252.637 C 225.173 251.527,224.975 250.750,224.606 250.978 C 224.390 251.112,223.928 250.937,223.579 250.588 C 223.229 250.238,222.663 250.063,222.313 250.196 C 221.805 250.389,221.777 250.339,222.168 249.945 C 222.868 249.239,222.829 248.199,222.124 248.784 C 221.692 249.142,221.622 249.023,221.755 248.148 L 221.918 247.070 221.288 248.047 L 220.659 249.023 220.901 247.881 C 221.117 246.861,221.075 246.795,220.510 247.264 C 220.027 247.665,219.906 247.672,219.997 247.295 C 220.196 246.477,218.801 245.781,218.365 246.481 C 218.055 246.977,217.926 246.983,217.497 246.521 C 217.219 246.223,217.192 246.091,217.436 246.227 C 217.680 246.364,218.120 246.181,218.413 245.821 C 218.885 245.241,218.856 245.199,218.164 245.458 C 217.537 245.692,217.479 245.652,217.871 245.258 C 218.140 244.987,218.359 244.596,218.359 244.388 C 218.359 244.180,218.244 244.126,218.102 244.267 C 217.961 244.409,217.576 244.306,217.246 244.040 C 216.749 243.637,216.706 243.654,216.992 244.141 C 217.282 244.633,217.239 244.647,216.720 244.227 C 216.237 243.836,215.884 243.827,215.094 244.187 C 214.290 244.553,213.950 244.536,213.413 244.100 C 213.043 243.800,212.865 243.762,213.017 244.015 C 213.177 244.283,213.005 244.560,212.603 244.679 C 211.388 245.039,206.245 244.839,205.987 244.422 C 205.850 244.199,205.928 244.137,206.163 244.282 C 206.396 244.426,206.670 244.409,206.771 244.245 C 206.873 244.080,205.698 243.950,204.161 243.956 C 202.625 243.963,201.104 243.845,200.781 243.696 C 200.459 243.546,198.793 242.950,197.079 242.371 C 190.124 240.020,183.196 236.124,174.384 229.608 C 162.093 220.521,152.768 216.406,144.465 216.406 C 143.536 216.406,143.019 216.251,143.164 216.016 C 143.297 215.801,143.351 215.650,143.285 215.679 C 143.218 215.709,141.670 215.868,139.844 216.033 M210.254 244.410 C 210.630 244.508,211.245 244.508,211.621 244.410 C 211.997 244.312,211.689 244.231,210.938 244.231 C 210.186 244.231,209.878 244.312,210.254 244.410 M111.523 257.318 C 100.723 257.826,90.308 262.691,82.031 271.095 C 78.457 274.724,75.391 278.524,76.050 278.508 C 76.224 278.504,77.773 278.246,79.492 277.936 C 91.934 275.688,103.044 279.440,116.992 290.603 C 131.754 302.418,140.596 306.687,153.516 308.238 C 170.686 310.300,190.141 301.372,200.327 286.755 C 202.865 283.114,202.855 283.056,199.902 284.241 C 189.238 288.521,181.749 288.963,172.266 285.871 C 166.859 284.108,157.243 279.149,157.695 278.357 C 157.828 278.122,157.799 278.055,157.628 278.209 C 157.163 278.629,156.145 277.984,150.468 273.673 C 132.950 260.369,124.259 256.720,111.523 257.318 M230.576 257.575 C 230.703 257.448,230.709 257.716,230.590 258.171 C 230.472 258.625,230.222 259.091,230.035 259.206 C 229.849 259.321,229.802 259.141,229.931 258.804 C 230.060 258.468,229.926 257.888,229.634 257.515 C 229.164 256.915,229.174 256.893,229.723 257.321 C 230.065 257.588,230.449 257.702,230.576 257.575 M242.725 266.625 C 242.493 267.364,242.440 267.969,242.605 267.969 C 242.922 267.969,243.539 265.674,243.290 265.425 C 243.210 265.346,242.956 265.886,242.725 266.625 M242.457 268.652 C 242.365 268.813,242.077 269.606,241.817 270.414 C 241.536 271.284,241.172 271.776,240.924 271.623 C 240.673 271.468,240.618 271.548,240.788 271.822 C 241.103 272.332,240.289 275.184,239.930 274.826 C 239.805 274.701,239.214 275.746,238.616 277.148 C 228.841 300.063,200.072 316.876,170.587 316.907 C 166.118 316.912,162.603 317.033,162.774 317.176 C 163.484 317.770,173.136 320.720,176.768 321.454 C 203.189 326.791,230.957 320.754,251.860 305.130 C 256.706 301.507,266.797 291.933,266.797 290.957 C 266.797 290.692,266.539 290.817,266.223 291.234 C 265.754 291.854,265.648 291.879,265.637 291.371 C 265.631 291.030,266.084 290.541,266.644 290.286 C 267.383 289.949,267.608 289.610,267.462 289.051 C 267.351 288.627,267.400 288.366,267.570 288.472 C 267.741 288.577,268.097 288.402,268.363 288.082 C 268.769 287.593,268.690 287.500,267.869 287.500 C 267.332 287.500,266.657 287.192,266.369 286.816 C 266.082 286.440,265.993 286.256,266.173 286.407 C 266.544 286.719,267.578 285.819,267.578 285.184 C 267.578 284.954,267.392 284.766,267.164 284.766 C 266.937 284.766,266.847 284.921,266.965 285.112 C 267.157 285.422,266.446 285.777,264.890 286.146 C 264.489 286.241,264.464 286.161,264.793 285.832 C 265.524 285.101,265.293 284.663,264.277 284.858 C 263.751 284.958,263.332 284.935,263.347 284.805 C 263.429 284.091,263.232 283.594,262.868 283.594 C 262.640 283.594,262.540 283.733,262.645 283.903 C 262.750 284.074,262.484 284.239,262.053 284.272 C 261.412 284.320,261.354 284.228,261.737 283.767 C 262.094 283.337,262.095 283.203,261.744 283.203 C 261.490 283.203,261.391 283.027,261.524 282.811 C 261.680 282.559,262.013 282.552,262.459 282.790 C 262.968 283.063,263.151 283.016,263.151 282.613 C 263.151 282.312,263.020 282.147,262.859 282.246 C 262.698 282.345,262.503 282.235,262.425 282.000 C 262.346 281.765,261.850 282.006,261.317 282.539 L 260.352 283.504 259.655 282.579 C 259.092 281.832,259.074 281.699,259.558 281.885 C 259.887 282.011,260.156 281.920,260.156 281.682 C 260.156 281.183,260.142 281.179,257.813 281.102 C 256.193 281.048,256.045 280.957,255.928 279.946 C 255.812 278.932,255.866 278.882,256.642 279.298 C 257.104 279.545,257.394 279.978,257.286 280.259 C 257.148 280.619,257.339 280.706,257.929 280.551 C 258.391 280.431,258.553 280.260,258.288 280.172 C 258.024 280.083,257.910 279.846,258.034 279.644 C 258.159 279.443,258.116 279.319,257.939 279.370 C 257.762 279.421,257.266 279.274,256.836 279.043 C 256.406 278.812,255.659 278.657,255.176 278.699 C 254.692 278.741,254.297 278.629,254.297 278.450 C 254.297 278.271,253.845 278.125,253.292 278.125 C 252.740 278.125,252.040 277.877,251.737 277.574 C 251.434 277.271,250.875 277.096,250.495 277.186 C 250.115 277.276,249.366 277.007,248.829 276.589 L 247.854 275.828 248.829 275.439 C 249.550 275.151,249.620 275.043,249.098 275.025 C 248.667 275.010,248.500 274.824,248.670 274.549 C 248.844 274.267,248.777 274.204,248.491 274.381 C 248.240 274.536,248.124 274.809,248.234 274.986 C 248.343 275.164,248.156 275.415,247.817 275.545 C 246.940 275.882,246.925 275.869,247.162 274.962 C 247.357 274.217,247.303 274.189,246.558 274.654 C 245.621 275.239,245.185 275.005,245.531 274.104 C 245.661 273.765,246.017 273.582,246.321 273.699 C 246.649 273.825,246.875 273.670,246.875 273.321 C 246.875 272.922,246.621 272.796,246.094 272.934 C 245.664 273.046,245.313 273.304,245.313 273.506 C 245.313 273.709,245.136 273.765,244.921 273.632 C 244.672 273.478,244.662 273.142,244.894 272.709 C 245.102 272.320,245.114 271.794,244.920 271.482 C 244.735 271.182,244.686 270.768,244.813 270.564 C 244.939 270.359,244.847 270.312,244.609 270.460 C 244.370 270.607,244.267 270.968,244.380 271.262 C 244.492 271.556,244.397 271.912,244.167 272.054 C 243.892 272.224,243.750 271.638,243.750 270.336 C 243.750 268.510,243.055 267.604,242.457 268.652 M249.514 276.041 C 249.784 276.150,249.916 276.383,249.807 276.559 C 249.698 276.736,249.995 276.779,250.467 276.656 C 251.342 276.427,250.571 275.830,249.414 275.840 C 249.199 275.841,249.244 275.932,249.514 276.041 " stroke="none" fill="#0fa2db" fill-rule="evenodd"></path><path id="path2" d="M202.734 62.768 C 202.734 62.843,203.192 63.781,203.752 64.852 C 204.312 65.922,204.796 67.221,204.827 67.737 C 204.857 68.253,204.997 68.605,205.136 68.519 C 205.602 68.231,206.642 75.159,206.641 78.544 C 206.638 92.640,201.109 103.174,182.157 125.195 C 176.055 132.285,170.708 138.902,169.101 141.353 C 167.876 143.222,168.313 142.807,171.094 139.467 C 172.800 137.416,175.291 136.005,175.633 136.895 C 175.799 137.330,176.044 137.387,176.558 137.112 C 177.106 136.818,177.301 136.905,177.459 137.509 C 177.570 137.934,177.864 138.281,178.111 138.281 C 178.359 138.281,178.453 138.105,178.320 137.891 C 178.188 137.676,178.246 137.500,178.451 137.500 C 178.655 137.500,178.919 137.750,179.036 138.056 C 179.161 138.381,179.562 138.529,180.005 138.414 C 180.580 138.263,180.861 138.504,181.180 139.421 C 181.411 140.083,181.806 140.625,182.059 140.625 C 182.389 140.625,182.401 140.484,182.099 140.121 C 181.782 139.739,181.868 139.602,182.454 139.558 C 182.922 139.523,183.183 139.712,183.117 140.037 C 183.057 140.332,183.184 140.541,183.398 140.502 C 183.613 140.462,183.735 140.268,183.669 140.071 C 183.604 139.873,183.795 139.916,184.096 140.165 C 184.396 140.414,184.760 140.501,184.903 140.357 C 185.047 140.213,185.538 140.497,185.995 140.988 C 186.674 141.716,186.727 141.942,186.284 142.223 C 185.844 142.502,185.840 142.567,186.267 142.572 C 186.556 142.575,186.897 142.183,187.026 141.699 C 187.259 140.825,187.262 140.825,187.504 141.797 C 187.662 142.430,187.978 142.733,188.405 142.659 C 188.767 142.596,189.063 142.738,189.063 142.975 C 189.063 143.212,189.238 143.297,189.453 143.164 C 189.668 143.031,189.844 143.119,189.844 143.359 C 189.844 143.600,190.004 143.697,190.199 143.576 C 190.859 143.169,191.866 143.836,191.677 144.556 C 191.560 145.005,191.670 145.187,191.986 145.066 C 192.256 144.962,192.589 145.169,192.726 145.526 C 192.872 145.905,193.220 146.081,193.564 145.949 C 194.013 145.777,194.111 145.949,193.979 146.681 C 193.883 147.207,193.925 147.621,194.071 147.601 C 194.216 147.580,194.468 147.607,194.629 147.659 C 195.410 147.912,195.943 147.827,196.415 147.373 C 197.101 146.711,197.455 146.745,198.097 147.536 C 198.392 147.899,198.432 148.076,198.185 147.929 C 197.939 147.781,197.629 147.946,197.495 148.294 C 197.273 148.872,197.338 148.871,198.236 148.282 C 199.053 147.747,199.219 147.733,199.219 148.201 C 199.219 148.510,198.999 148.867,198.730 148.993 C 198.462 149.120,198.770 149.129,199.414 149.014 C 200.336 148.849,200.461 148.897,200.000 149.238 C 199.540 149.579,199.666 149.626,200.586 149.456 C 201.664 149.257,201.687 149.275,200.879 149.679 C 199.867 150.186,199.675 150.881,200.650 150.507 C 201.073 150.345,201.206 150.410,201.030 150.694 C 200.755 151.140,201.960 151.064,202.731 150.588 C 202.943 150.457,203.022 150.596,202.906 150.896 C 202.755 151.292,203.049 151.453,203.973 151.479 C 204.675 151.499,205.450 151.789,205.695 152.125 C 206.290 152.939,206.669 152.899,206.396 152.051 C 206.228 151.529,206.266 151.493,206.556 151.899 C 206.765 152.191,206.854 152.806,206.754 153.266 C 206.650 153.745,206.712 153.935,206.900 153.711 C 207.079 153.496,207.842 153.290,208.594 153.253 C 209.885 153.190,209.911 153.212,209.070 153.664 C 208.580 153.927,208.300 154.263,208.448 154.411 C 208.596 154.560,208.935 154.500,209.200 154.280 C 209.835 153.753,210.623 153.942,211.241 154.769 C 211.536 155.164,212.015 155.342,212.413 155.205 C 212.948 155.021,212.926 155.104,212.305 155.614 C 211.554 156.229,211.568 156.239,212.645 155.853 C 213.667 155.488,213.749 155.522,213.561 156.242 C 213.447 156.676,213.524 157.031,213.731 157.031 C 213.939 157.031,214.010 157.191,213.890 157.385 C 213.769 157.580,214.037 157.644,214.486 157.527 C 215.120 157.361,215.185 157.232,214.779 156.947 C 214.364 156.656,214.377 156.613,214.844 156.739 C 215.166 156.825,215.486 157.369,215.554 157.947 C 215.628 158.571,215.847 158.893,216.095 158.740 C 216.376 158.566,216.426 158.912,216.249 159.808 C 215.847 161.837,215.502 168.198,215.809 167.904 C 215.958 167.760,216.075 166.794,216.069 165.755 C 216.055 163.576,217.972 156.553,220.550 149.340 C 227.546 129.763,229.328 121.979,229.321 111.034 C 229.314 100.849,227.444 93.430,222.384 83.519 C 221.143 81.089,220.149 78.889,220.174 78.629 C 220.200 78.368,220.089 78.193,219.929 78.238 C 219.768 78.283,218.409 76.738,216.908 74.805 C 213.773 70.766,211.920 68.981,207.360 65.609 C 204.009 63.131,203.277 62.528,204.297 63.086 C 204.619 63.262,204.747 63.258,204.582 63.076 C 204.289 62.753,202.734 62.494,202.734 62.768 M247.556 139.494 C 246.319 140.584,245.088 141.508,244.821 141.547 C 244.554 141.587,244.336 141.718,244.336 141.839 C 244.336 141.960,243.383 143.099,242.218 144.370 C 234.933 152.317,231.096 163.741,232.423 173.536 C 232.634 175.093,232.895 177.158,233.003 178.125 C 233.296 180.741,234.315 184.147,234.346 182.617 C 234.360 181.973,234.202 180.830,233.995 180.078 C 233.423 177.995,233.136 175.087,233.569 175.763 C 233.769 176.075,233.831 176.514,233.706 176.739 C 233.581 176.964,233.710 176.935,233.992 176.673 C 234.274 176.412,234.505 175.671,234.505 175.027 L 234.505 173.857 235.807 175.238 C 236.523 175.997,237.109 176.449,237.109 176.241 C 237.109 176.034,237.364 175.767,237.675 175.648 C 238.054 175.502,238.169 175.618,238.024 175.996 C 237.905 176.308,238.002 176.563,238.239 176.563 C 238.477 176.563,238.672 176.751,238.672 176.981 C 238.672 177.682,239.761 178.575,240.049 178.109 C 240.226 177.823,240.454 177.821,240.793 178.103 C 241.063 178.326,241.408 178.384,241.560 178.231 C 241.713 178.078,241.719 178.263,241.574 178.641 C 241.394 179.111,241.481 179.293,241.847 179.215 C 242.177 179.145,242.336 179.375,242.262 179.811 C 242.157 180.426,242.255 180.460,242.993 180.065 C 243.574 179.754,243.760 179.746,243.579 180.039 C 243.433 180.275,243.510 180.469,243.750 180.469 C 243.990 180.469,244.090 180.625,243.973 180.815 C 243.855 181.006,244.020 181.379,244.340 181.644 C 244.660 181.910,244.927 181.974,244.934 181.786 C 244.941 181.599,245.189 181.765,245.485 182.155 C 245.781 182.545,246.127 182.853,246.253 182.839 C 247.069 182.747,247.276 182.872,247.018 183.301 C 246.824 183.624,246.951 183.606,247.395 183.246 C 247.990 182.763,248.034 182.784,247.787 183.441 C 247.555 184.060,247.605 184.103,248.094 183.706 C 248.743 183.179,250.000 184.253,250.000 185.334 C 250.000 185.682,250.294 185.836,250.781 185.742 C 251.211 185.659,251.563 185.779,251.563 186.008 C 251.563 186.289,251.736 186.280,252.097 185.981 C 252.724 185.460,253.759 186.400,253.327 187.099 C 252.933 187.737,252.345 187.169,252.630 186.426 C 252.852 185.849,252.809 185.837,252.281 186.330 C 251.603 186.963,253.099 188.585,253.902 188.088 C 254.119 187.954,254.297 187.993,254.297 188.174 C 254.297 188.355,254.850 188.830,255.527 189.230 C 256.387 189.738,256.671 189.793,256.473 189.412 C 256.318 189.112,256.555 189.282,257.001 189.789 C 257.448 190.297,257.813 190.496,257.813 190.233 C 257.813 189.898,258.106 189.946,258.789 190.394 C 259.326 190.746,259.771 190.898,259.778 190.732 C 259.784 190.566,259.969 190.737,260.188 191.113 C 260.407 191.489,260.841 191.797,261.152 191.797 C 261.464 191.797,261.719 192.045,261.719 192.348 C 261.719 192.900,262.628 192.971,263.140 192.459 C 263.289 192.310,263.587 192.188,263.802 192.188 C 264.017 192.188,264.077 192.303,263.936 192.445 C 263.521 192.859,264.458 193.724,265.068 193.490 C 265.418 193.355,265.625 193.527,265.625 193.951 C 265.625 194.518,265.723 194.546,266.233 194.122 C 266.567 193.845,266.787 193.783,266.721 193.984 C 266.655 194.186,267.010 194.787,267.509 195.320 C 268.008 195.853,268.360 196.047,268.290 195.752 C 268.221 195.457,268.374 195.137,268.631 195.043 C 268.948 194.926,269.039 195.224,268.916 195.971 C 268.792 196.718,268.847 196.898,269.089 196.532 C 269.284 196.236,269.629 196.108,269.854 196.247 C 270.080 196.387,270.411 196.238,270.591 195.918 C 270.924 195.322,272.151 197.349,275.249 203.613 C 275.966 205.063,276.638 206.250,276.743 206.250 C 277.005 206.250,276.402 204.726,275.208 202.368 C 274.657 201.281,274.318 200.391,274.455 200.391 C 274.593 200.391,274.507 200.152,274.265 199.860 C 274.022 199.568,272.829 197.415,271.613 195.075 C 270.397 192.735,266.877 186.609,263.792 181.462 C 260.706 176.315,258.272 171.867,258.383 171.578 C 258.494 171.289,258.419 171.156,258.216 171.281 C 257.591 171.667,252.474 160.502,252.935 159.757 C 253.042 159.584,252.953 159.383,252.737 159.311 C 250.929 158.707,249.240 145.041,250.222 138.965 C 250.530 137.062,250.251 137.118,247.556 139.494 " stroke="none" fill="#b53de3" fill-rule="evenodd"></path><path id="path3" d="M154.693 181.882 C 154.615 192.762,163.764 208.696,175.329 217.821 C 180.646 222.017,181.335 222.479,187.500 225.987 C 188.037 226.293,188.428 226.736,188.369 226.972 C 188.310 227.209,188.426 227.300,188.627 227.176 C 189.136 226.862,190.277 227.350,190.017 227.771 C 189.899 227.961,190.040 228.025,190.330 227.914 C 190.620 227.803,192.057 228.256,193.524 228.921 C 204.280 233.798,218.283 235.731,227.298 233.584 C 229.897 232.965,229.765 233.397,226.347 236.689 C 221.790 241.078,217.533 243.246,210.938 244.534 L 209.180 244.877 211.133 244.710 C 212.207 244.618,213.422 244.531,213.832 244.517 C 214.242 244.503,214.912 244.313,215.322 244.094 C 215.858 243.807,216.243 243.840,216.702 244.211 C 217.242 244.649,217.286 244.639,216.992 244.141 C 216.706 243.654,216.749 243.637,217.246 244.040 C 217.576 244.306,217.961 244.409,218.102 244.267 C 218.244 244.126,218.359 244.180,218.359 244.388 C 218.359 244.596,218.140 244.987,217.871 245.258 C 217.479 245.652,217.537 245.692,218.164 245.458 C 218.856 245.199,218.885 245.241,218.413 245.821 C 218.120 246.181,217.680 246.364,217.436 246.227 C 217.192 246.091,217.219 246.223,217.497 246.521 C 217.926 246.983,218.055 246.977,218.365 246.481 C 218.801 245.781,220.196 246.477,219.997 247.295 C 219.906 247.672,220.027 247.665,220.510 247.264 C 221.075 246.795,221.117 246.861,220.901 247.881 L 220.659 249.023 221.288 248.047 L 221.918 247.070 221.755 248.148 C 221.622 249.023,221.692 249.142,222.124 248.784 C 222.829 248.199,222.868 249.239,222.168 249.945 C 221.777 250.339,221.805 250.389,222.313 250.196 C 222.663 250.063,223.229 250.238,223.579 250.588 C 223.928 250.937,224.390 251.112,224.606 250.978 C 224.975 250.750,225.173 251.527,225.029 252.637 C 224.991 252.930,225.421 253.125,226.107 253.125 C 227.452 253.125,228.105 253.724,228.131 254.980 C 228.134 255.142,228.325 255.010,228.555 254.688 C 228.890 254.219,228.934 254.283,228.776 255.003 C 228.610 255.753,228.671 255.826,229.141 255.436 C 229.600 255.055,229.660 255.086,229.463 255.600 C 229.295 256.037,229.541 256.378,230.261 256.706 C 230.948 257.019,231.243 257.407,231.128 257.846 C 231.019 258.263,231.302 258.699,231.884 259.010 C 232.758 259.478,232.775 259.551,232.164 260.225 C 231.248 261.238,231.718 261.483,232.743 260.528 C 233.211 260.092,233.596 259.874,233.600 260.043 C 233.603 260.213,233.735 260.172,233.893 259.952 C 234.051 259.732,234.707 259.220,235.352 258.813 C 235.996 258.407,237.784 257.048,239.325 255.795 C 240.865 254.541,242.250 253.516,242.400 253.516 C 242.973 253.516,242.210 266.854,241.517 268.945 C 241.197 269.912,241.114 270.233,240.835 271.572 C 240.713 272.157,240.435 273.104,240.218 273.677 C 240.000 274.249,239.890 274.786,239.973 274.869 C 240.057 274.953,240.653 273.566,241.298 271.788 C 242.739 267.818,243.750 267.207,243.750 270.307 C 243.750 271.629,243.892 272.224,244.167 272.054 C 244.397 271.912,244.492 271.556,244.380 271.262 C 244.267 270.968,244.370 270.607,244.609 270.460 C 244.847 270.312,244.939 270.359,244.813 270.564 C 244.686 270.768,244.735 271.182,244.920 271.482 C 245.114 271.794,245.102 272.320,244.894 272.709 C 244.662 273.142,244.672 273.478,244.921 273.632 C 245.136 273.765,245.313 273.709,245.313 273.506 C 245.313 273.304,245.664 273.046,246.094 272.934 C 246.621 272.796,246.875 272.922,246.875 273.321 C 246.875 273.670,246.649 273.825,246.321 273.699 C 246.017 273.582,245.661 273.765,245.531 274.104 C 245.185 275.005,245.621 275.239,246.558 274.654 C 247.307 274.186,247.358 274.215,247.154 274.993 C 246.985 275.640,247.073 275.789,247.521 275.617 C 247.846 275.492,248.195 275.391,248.297 275.391 C 248.400 275.391,248.382 275.227,248.259 275.027 C 248.135 274.827,248.240 274.536,248.491 274.381 C 248.777 274.204,248.844 274.267,248.670 274.549 C 248.500 274.824,248.667 275.010,249.098 275.025 C 249.620 275.043,249.550 275.151,248.829 275.439 L 247.854 275.828 248.829 276.589 C 249.366 277.007,250.115 277.276,250.495 277.186 C 250.875 277.096,251.434 277.271,251.737 277.574 C 252.040 277.877,252.740 278.125,253.292 278.125 C 253.845 278.125,254.297 278.271,254.297 278.450 C 254.297 278.629,254.692 278.741,255.176 278.699 C 255.659 278.657,256.406 278.812,256.836 279.043 C 257.266 279.274,257.762 279.421,257.939 279.370 C 258.116 279.319,258.159 279.443,258.034 279.644 C 257.910 279.846,258.024 280.083,258.288 280.172 C 258.553 280.260,258.391 280.431,257.929 280.551 C 257.339 280.706,257.148 280.619,257.286 280.259 C 257.394 279.978,257.104 279.545,256.642 279.298 C 255.866 278.882,255.812 278.932,255.928 279.946 C 256.045 280.957,256.193 281.048,257.813 281.102 C 260.142 281.179,260.156 281.183,260.156 281.682 C 260.156 281.920,259.887 282.011,259.558 281.885 C 259.074 281.699,259.092 281.832,259.655 282.579 L 260.352 283.504 261.317 282.539 C 261.850 282.006,262.346 281.765,262.425 282.000 C 262.503 282.235,262.698 282.345,262.859 282.246 C 263.020 282.147,263.151 282.312,263.151 282.613 C 263.151 283.016,262.968 283.063,262.459 282.790 C 262.013 282.552,261.680 282.559,261.524 282.811 C 261.391 283.027,261.490 283.203,261.744 283.203 C 262.095 283.203,262.094 283.337,261.737 283.767 C 261.354 284.228,261.412 284.320,262.053 284.272 C 262.484 284.239,262.750 284.074,262.645 283.903 C 262.540 283.733,262.640 283.594,262.868 283.594 C 263.232 283.594,263.429 284.091,263.347 284.805 C 263.332 284.935,263.751 284.958,264.277 284.858 C 265.293 284.663,265.524 285.101,264.793 285.832 C 264.464 286.161,264.489 286.241,264.890 286.146 C 266.446 285.777,267.157 285.422,266.965 285.112 C 266.847 284.921,266.937 284.766,267.164 284.766 C 267.392 284.766,267.578 284.954,267.578 285.184 C 267.578 285.819,266.544 286.719,266.173 286.407 C 265.993 286.256,266.082 286.440,266.369 286.816 C 266.657 287.192,267.332 287.500,267.869 287.500 C 268.690 287.500,268.769 287.593,268.363 288.082 C 268.097 288.402,267.741 288.577,267.570 288.472 C 267.400 288.366,267.351 288.627,267.462 289.051 C 267.608 289.610,267.383 289.949,266.644 290.286 C 266.084 290.541,265.625 291.007,265.625 291.320 C 265.625 293.170,272.491 284.004,276.094 277.344 C 280.267 269.631,285.991 250.000,284.067 250.000 C 283.857 250.000,283.593 249.648,283.480 249.217 C 283.334 248.660,283.078 248.510,282.589 248.698 C 282.121 248.877,281.993 248.816,282.186 248.504 C 282.341 248.253,282.282 248.047,282.054 248.047 C 281.827 248.047,281.641 248.223,281.641 248.438 C 281.641 248.652,281.191 248.828,280.641 248.828 C 280.076 248.828,279.746 248.659,279.882 248.439 C 280.041 248.181,279.785 248.178,279.124 248.429 C 278.476 248.675,278.125 248.675,278.125 248.428 C 278.125 248.218,278.433 248.035,278.809 248.019 C 279.388 247.996,279.373 247.945,278.711 247.681 C 278.281 247.510,277.874 247.514,277.806 247.689 C 277.738 247.864,277.228 247.835,276.674 247.624 C 275.812 247.297,275.734 247.324,276.136 247.808 C 276.527 248.280,276.471 248.340,275.804 248.166 C 275.362 248.050,275.000 247.713,275.000 247.415 C 275.000 247.093,274.588 246.875,273.982 246.875 C 273.179 246.875,273.018 246.733,273.221 246.203 C 273.363 245.834,273.354 245.657,273.201 245.809 C 273.048 245.962,272.703 245.904,272.434 245.681 C 272.090 245.396,271.858 245.415,271.654 245.745 C 271.458 246.062,271.529 246.112,271.875 245.898 C 272.223 245.683,272.292 245.735,272.092 246.059 C 271.872 246.415,271.599 246.356,271.014 245.826 C 270.583 245.436,270.117 245.117,269.979 245.117 C 269.840 245.117,269.764 245.006,269.809 244.870 C 269.854 244.734,269.591 244.646,269.223 244.675 C 268.855 244.703,268.600 244.503,268.655 244.230 C 268.722 243.899,268.430 243.793,267.776 243.911 C 266.627 244.120,266.528 243.850,267.480 243.109 C 268.081 242.641,268.085 242.604,267.511 242.803 C 267.152 242.927,266.467 242.820,265.989 242.564 C 265.208 242.146,265.141 242.179,265.328 242.895 C 265.650 244.127,264.581 243.506,264.229 242.257 C 264.067 241.682,263.963 241.079,263.998 240.918 C 264.034 240.757,263.887 240.625,263.672 240.625 C 263.457 240.625,263.281 240.790,263.281 240.991 C 263.281 241.193,262.930 241.331,262.500 241.299 C 262.070 241.266,261.719 241.102,261.719 240.932 C 261.719 240.763,261.219 240.625,260.607 240.625 C 259.320 240.625,257.973 239.368,258.435 238.599 C 258.682 238.188,258.615 238.190,258.099 238.609 C 257.537 239.065,257.472 239.033,257.601 238.365 C 257.682 237.943,257.543 237.603,257.292 237.610 C 255.993 237.647,255.446 237.462,255.690 237.068 C 255.870 236.776,255.686 236.721,255.127 236.899 C 254.506 237.096,254.297 236.997,254.297 236.508 C 254.297 236.087,254.088 235.934,253.711 236.079 C 253.389 236.202,253.125 236.139,253.125 235.938 C 253.125 235.736,252.889 235.662,252.602 235.772 C 252.314 235.883,251.830 235.668,251.527 235.294 C 251.224 234.921,251.184 234.740,251.438 234.892 C 251.692 235.044,252.026 234.963,252.182 234.712 C 252.337 234.460,252.297 234.358,252.092 234.484 C 251.888 234.611,251.475 234.562,251.174 234.376 C 250.857 234.180,250.321 234.203,249.894 234.432 C 249.254 234.774,249.210 234.730,249.553 234.091 C 249.817 233.596,249.815 233.172,249.545 232.791 C 249.216 232.326,249.182 232.343,249.355 232.884 C 249.504 233.351,249.353 233.526,248.833 233.487 C 248.430 233.456,248.189 233.289,248.297 233.115 C 248.511 232.769,246.064 231.613,245.654 231.867 C 245.120 232.197,244.568 231.040,244.981 230.456 C 245.317 229.981,245.349 229.998,245.171 230.554 C 245.053 230.923,245.104 231.317,245.285 231.428 C 245.466 231.540,245.706 231.280,245.819 230.850 C 245.953 230.335,245.769 229.932,245.277 229.669 C 244.867 229.449,244.531 229.385,244.531 229.526 C 244.531 229.668,244.312 229.608,244.043 229.394 C 243.774 229.180,243.188 229.065,242.741 229.138 C 242.225 229.223,241.927 229.062,241.927 228.699 C 241.927 228.003,242.263 227.966,242.891 228.594 C 243.255 228.958,243.359 228.956,243.359 228.581 C 243.359 228.317,243.097 228.000,242.776 227.876 C 242.455 227.753,242.267 227.530,242.360 227.381 C 242.773 226.712,241.058 226.186,240.449 226.794 C 239.897 227.346,239.676 227.235,239.797 226.465 C 239.823 226.304,239.570 226.172,239.235 226.172 C 238.869 226.172,238.739 225.989,238.908 225.715 C 239.098 225.408,238.978 225.340,238.541 225.507 C 238.183 225.644,237.891 225.586,237.891 225.378 C 237.891 225.170,238.077 225.000,238.304 225.000 C 238.532 225.000,238.602 224.812,238.460 224.583 C 238.318 224.353,237.937 224.267,237.612 224.392 C 237.224 224.541,237.092 224.438,237.225 224.091 C 237.342 223.786,236.948 223.280,236.292 222.892 C 235.667 222.523,235.156 222.339,235.156 222.482 C 235.156 222.625,234.791 222.328,234.345 221.821 C 233.899 221.313,233.645 221.116,233.780 221.382 C 233.942 221.703,233.817 221.786,233.409 221.630 C 232.973 221.462,232.909 221.253,233.190 220.915 C 233.697 220.304,233.311 219.905,232.511 220.212 C 232.066 220.383,231.961 220.277,232.132 219.831 C 232.275 219.459,232.031 218.928,231.517 218.494 L 230.664 217.773 231.389 218.631 C 232.102 219.475,232.100 219.488,231.244 219.423 C 230.759 219.387,230.193 218.963,229.968 218.468 C 229.745 217.979,229.415 217.578,229.234 217.578 C 229.054 217.578,228.950 217.446,229.004 217.285 C 229.058 217.124,228.926 216.992,228.711 216.992 C 228.496 216.992,228.369 217.137,228.428 217.314 C 228.487 217.491,228.355 217.525,228.135 217.389 C 227.915 217.253,227.734 216.867,227.734 216.531 C 227.734 216.006,227.641 215.996,227.073 216.456 C 226.510 216.913,226.462 216.911,226.744 216.442 C 226.998 216.021,226.886 215.942,226.262 216.105 C 225.719 216.247,225.510 216.159,225.633 215.839 C 225.734 215.575,225.535 215.126,225.191 214.840 C 224.847 214.555,224.619 214.482,224.685 214.680 C 224.751 214.877,224.629 215.039,224.414 215.039 C 224.199 215.039,224.075 214.885,224.137 214.697 C 224.406 213.891,222.983 212.934,222.045 213.291 C 221.379 213.544,220.961 213.483,220.549 213.071 C 220.235 212.757,219.789 212.500,219.559 212.500 C 219.329 212.500,219.141 212.230,219.141 211.900 C 219.141 211.410,218.989 211.382,218.312 211.744 C 217.857 211.988,217.587 212.020,217.714 211.815 C 217.840 211.611,217.673 211.110,217.341 210.702 C 217.010 210.294,216.849 210.179,216.984 210.445 C 217.144 210.763,217.021 210.849,216.622 210.696 C 216.288 210.568,216.016 210.212,216.016 209.905 C 216.016 209.463,215.849 209.437,215.209 209.779 C 214.185 210.327,213.270 209.665,213.488 208.533 C 213.598 207.965,213.479 207.803,213.070 207.960 C 212.757 208.080,212.500 207.987,212.500 207.752 C 212.500 207.445,212.356 207.445,211.985 207.754 C 211.390 208.248,209.594 207.234,209.975 206.618 C 210.097 206.421,209.948 206.355,209.643 206.471 C 209.326 206.593,208.674 206.189,208.113 205.522 C 207.194 204.431,207.093 204.400,206.442 205.012 C 206.061 205.371,205.880 205.433,206.039 205.150 C 206.240 204.792,206.108 204.673,205.606 204.759 C 205.116 204.843,204.900 204.662,204.937 204.199 C 204.967 203.823,204.766 203.516,204.491 203.516 C 204.215 203.516,203.877 203.223,203.740 202.864 C 203.549 202.368,203.382 202.322,203.034 202.669 C 202.395 203.308,201.953 203.236,201.953 202.494 C 201.953 202.054,201.715 201.924,201.171 202.066 C 200.684 202.194,200.485 202.116,200.643 201.860 C 200.805 201.599,200.546 201.516,199.937 201.633 C 199.163 201.781,198.981 201.660,199.000 201.013 C 199.013 200.570,198.804 200.184,198.535 200.153 C 198.267 200.123,197.773 200.076,197.438 200.049 C 197.103 200.022,196.938 199.824,197.070 199.609 C 197.203 199.395,197.126 199.219,196.898 199.219 C 196.671 199.219,196.484 199.482,196.484 199.805 C 196.484 200.127,196.177 200.377,195.801 200.360 C 195.388 200.341,195.312 200.250,195.608 200.131 C 195.878 200.022,195.987 199.753,195.851 199.532 C 195.715 199.312,195.845 198.964,196.141 198.759 C 196.528 198.491,196.441 198.453,195.834 198.623 C 195.229 198.792,194.798 198.605,194.321 197.965 C 193.914 197.419,193.741 197.329,193.877 197.734 C 194.035 198.202,193.934 198.334,193.535 198.181 C 193.223 198.061,192.969 197.825,192.969 197.656 C 192.969 197.487,192.680 197.238,192.328 197.103 C 191.788 196.896,191.766 196.953,192.188 197.461 C 192.609 197.969,192.587 198.026,192.047 197.819 C 191.695 197.683,191.406 197.328,191.406 197.029 C 191.406 196.541,190.635 196.283,189.696 196.455 C 189.508 196.489,189.447 196.159,189.562 195.720 C 189.677 195.281,189.611 194.922,189.417 194.922 C 189.222 194.922,189.063 195.212,189.063 195.568 C 189.063 196.078,188.885 196.016,188.220 195.275 C 187.629 194.616,187.452 194.541,187.624 195.024 C 187.832 195.608,187.708 195.673,186.806 195.452 C 185.674 195.176,185.080 194.581,185.406 194.052 C 185.516 193.875,185.460 193.756,185.283 193.787 C 184.350 193.949,183.577 193.703,183.813 193.320 C 184.000 193.018,183.832 193.023,183.250 193.334 C 182.495 193.738,182.265 193.626,182.366 192.900 C 182.386 192.755,181.878 192.521,181.237 192.380 C 180.596 192.239,180.159 191.982,180.266 191.809 C 180.373 191.637,180.066 191.390,179.585 191.261 C 178.382 190.938,178.044 190.959,178.280 191.341 C 178.391 191.520,178.233 191.667,177.930 191.667 C 177.626 191.667,177.455 191.542,177.550 191.389 C 177.644 191.236,177.186 191.004,176.530 190.872 C 175.758 190.718,175.438 190.474,175.620 190.179 C 175.800 189.889,175.732 189.828,175.434 190.012 C 175.176 190.171,174.748 190.121,174.482 189.900 C 174.177 189.647,173.785 189.632,173.424 189.860 C 172.600 190.382,172.026 190.318,172.578 189.766 C 172.836 189.508,173.044 189.112,173.041 188.887 C 173.038 188.661,172.881 188.719,172.694 189.015 C 172.477 189.357,172.159 189.431,171.821 189.216 C 171.528 189.031,171.113 188.868,170.898 188.855 C 170.684 188.842,170.548 188.631,170.597 188.385 C 170.648 188.133,170.350 188.004,169.914 188.087 C 169.446 188.177,169.141 188.024,169.141 187.700 C 169.141 187.286,168.864 187.243,167.928 187.512 C 166.891 187.809,166.687 187.749,166.515 187.094 C 166.405 186.673,166.160 186.328,165.970 186.328 C 165.780 186.328,165.625 186.035,165.625 185.677 C 165.625 185.319,165.507 185.144,165.364 185.287 C 165.220 185.431,164.740 185.241,164.296 184.864 C 163.515 184.201,163.508 184.204,164.069 184.936 C 164.594 185.622,164.584 185.669,163.965 185.437 C 163.589 185.296,163.281 185.358,163.281 185.575 C 163.281 185.791,163.036 185.742,162.736 185.465 C 162.437 185.188,162.274 184.785,162.375 184.570 C 162.475 184.355,162.306 184.487,161.998 184.863 C 161.342 185.663,160.896 185.753,161.035 185.059 C 161.092 184.775,160.758 184.584,160.237 184.603 C 159.614 184.626,159.406 184.466,159.555 184.079 C 159.687 183.734,159.458 183.440,158.953 183.308 C 158.317 183.142,158.252 183.013,158.658 182.724 C 159.031 182.460,158.928 182.409,158.301 182.547 C 157.817 182.653,157.422 182.561,157.422 182.344 C 157.422 182.126,157.158 182.049,156.836 182.173 C 156.479 182.309,156.250 182.173,156.250 181.824 C 156.250 181.508,156.074 181.250,155.859 181.250 C 155.645 181.250,155.466 181.470,155.463 181.738 C 155.459 182.064,155.331 182.031,155.078 181.641 C 154.768 181.161,154.698 181.205,154.693 181.882 M203.384 203.295 C 203.266 203.603,203.379 203.941,203.635 204.045 C 203.995 204.192,203.995 204.242,203.636 204.266 C 203.037 204.306,202.618 203.629,202.930 203.125 C 203.295 202.533,203.629 202.658,203.384 203.295 M206.070 244.556 C 206.194 244.757,206.754 244.922,207.315 244.922 C 208.566 244.922,208.362 244.646,206.917 244.384 C 206.301 244.273,205.940 244.346,206.070 244.556 M229.634 257.515 C 229.926 257.888,230.060 258.468,229.931 258.804 C 229.802 259.141,229.849 259.321,230.035 259.206 C 230.222 259.091,230.472 258.625,230.590 258.171 C 230.709 257.716,230.703 257.448,230.576 257.575 C 230.449 257.702,230.065 257.588,229.723 257.321 C 229.174 256.893,229.164 256.915,229.634 257.515 M243.170 266.769 C 243.025 267.429,242.771 267.969,242.605 267.969 C 242.440 267.969,242.493 267.364,242.725 266.625 C 243.233 264.999,243.537 265.098,243.170 266.769 M250.565 276.134 C 251.291 276.418,251.286 276.442,250.467 276.656 C 249.995 276.779,249.698 276.736,249.807 276.559 C 249.916 276.383,249.784 276.150,249.514 276.041 C 249.244 275.932,249.199 275.841,249.414 275.840 C 249.629 275.838,250.147 275.970,250.565 276.134 " stroke="none" fill="#4470e7" fill-rule="evenodd"></path><path id="path4" d="M157.177 162.207 C 157.298 162.583,157.257 162.891,157.085 162.891 C 155.826 162.891,153.993 179.984,155.074 181.641 C 155.330 182.032,155.459 182.064,155.463 181.738 C 155.466 181.470,155.645 181.250,155.859 181.250 C 156.074 181.250,156.250 181.508,156.250 181.824 C 156.250 182.173,156.479 182.309,156.836 182.173 C 157.158 182.049,157.422 182.126,157.422 182.344 C 157.422 182.561,157.817 182.653,158.301 182.547 C 158.928 182.409,159.031 182.460,158.658 182.724 C 158.252 183.013,158.317 183.142,158.953 183.308 C 159.458 183.440,159.687 183.734,159.555 184.079 C 159.406 184.466,159.614 184.626,160.237 184.603 C 160.758 184.584,161.092 184.775,161.035 185.059 C 160.896 185.753,161.342 185.663,161.998 184.863 C 162.306 184.487,162.475 184.355,162.375 184.570 C 162.274 184.785,162.437 185.188,162.736 185.465 C 163.036 185.742,163.281 185.791,163.281 185.575 C 163.281 185.358,163.589 185.296,163.965 185.437 C 164.584 185.669,164.594 185.622,164.069 184.936 C 163.508 184.204,163.515 184.201,164.296 184.864 C 164.740 185.241,165.220 185.431,165.364 185.287 C 165.507 185.144,165.625 185.319,165.625 185.677 C 165.625 186.035,165.780 186.328,165.970 186.328 C 166.160 186.328,166.405 186.673,166.515 187.094 C 166.687 187.749,166.891 187.809,167.928 187.512 C 168.864 187.243,169.141 187.286,169.141 187.700 C 169.141 188.024,169.446 188.177,169.914 188.087 C 170.350 188.004,170.648 188.133,170.597 188.385 C 170.548 188.631,170.684 188.842,170.898 188.855 C 171.113 188.868,171.528 189.031,171.821 189.216 C 172.159 189.431,172.477 189.357,172.694 189.015 C 172.881 188.719,173.038 188.661,173.041 188.887 C 173.044 189.112,172.836 189.508,172.578 189.766 C 172.026 190.318,172.600 190.382,173.424 189.860 C 173.785 189.632,174.177 189.647,174.482 189.900 C 174.748 190.121,175.176 190.171,175.434 190.012 C 175.732 189.828,175.800 189.889,175.620 190.179 C 175.438 190.474,175.758 190.718,176.530 190.872 C 177.186 191.004,177.644 191.236,177.550 191.389 C 177.455 191.542,177.626 191.667,177.930 191.667 C 178.233 191.667,178.374 191.492,178.242 191.280 C 178.095 191.041,178.364 190.989,178.943 191.144 C 179.460 191.282,180.025 191.398,180.199 191.401 C 180.373 191.404,180.415 191.568,180.293 191.765 C 180.171 191.962,180.596 192.239,181.237 192.380 C 181.878 192.521,182.386 192.755,182.366 192.900 C 182.265 193.626,182.495 193.738,183.250 193.334 C 183.832 193.023,184.000 193.018,183.813 193.320 C 183.577 193.703,184.350 193.949,185.283 193.787 C 185.460 193.756,185.516 193.875,185.406 194.052 C 185.080 194.581,185.674 195.176,186.806 195.452 C 187.708 195.673,187.832 195.608,187.624 195.024 C 187.452 194.541,187.629 194.616,188.220 195.275 C 188.885 196.016,189.063 196.078,189.063 195.568 C 189.063 195.212,189.222 194.922,189.417 194.922 C 189.611 194.922,189.677 195.281,189.562 195.720 C 189.447 196.159,189.508 196.489,189.696 196.455 C 190.635 196.283,191.406 196.541,191.406 197.029 C 191.406 197.328,191.695 197.683,192.047 197.819 C 192.587 198.026,192.609 197.969,192.188 197.461 C 191.766 196.953,191.788 196.896,192.328 197.103 C 192.680 197.238,192.969 197.487,192.969 197.656 C 192.969 197.825,193.223 198.061,193.535 198.181 C 193.934 198.334,194.035 198.202,193.877 197.734 C 193.741 197.329,193.914 197.419,194.321 197.965 C 194.798 198.605,195.229 198.792,195.834 198.623 C 196.441 198.453,196.528 198.491,196.141 198.759 C 195.845 198.964,195.715 199.312,195.851 199.532 C 195.987 199.753,195.878 200.022,195.608 200.131 C 195.312 200.250,195.388 200.341,195.801 200.360 C 196.177 200.377,196.484 200.127,196.484 199.805 C 196.484 199.482,196.671 199.219,196.898 199.219 C 197.126 199.219,197.203 199.395,197.070 199.609 C 196.938 199.824,197.103 200.022,197.438 200.049 C 197.773 200.076,198.267 200.123,198.535 200.153 C 198.804 200.184,199.013 200.570,199.000 201.013 C 198.981 201.660,199.163 201.781,199.937 201.633 C 200.546 201.516,200.805 201.599,200.643 201.860 C 200.485 202.116,200.684 202.194,201.171 202.066 C 201.715 201.924,201.953 202.054,201.953 202.494 C 201.953 203.236,202.395 203.308,203.034 202.669 C 203.382 202.322,203.549 202.368,203.740 202.864 C 203.877 203.223,204.215 203.516,204.491 203.516 C 204.766 203.516,204.967 203.823,204.937 204.199 C 204.900 204.662,205.116 204.843,205.606 204.759 C 206.108 204.673,206.240 204.792,206.039 205.150 C 205.880 205.433,206.061 205.371,206.442 205.012 C 207.093 204.400,207.194 204.431,208.113 205.522 C 208.674 206.189,209.326 206.593,209.643 206.471 C 209.948 206.355,210.097 206.421,209.975 206.618 C 209.594 207.234,211.390 208.248,211.985 207.754 C 212.356 207.445,212.500 207.445,212.500 207.752 C 212.500 207.987,212.757 208.080,213.070 207.960 C 213.479 207.803,213.598 207.965,213.488 208.533 C 213.270 209.665,214.185 210.327,215.209 209.779 C 215.849 209.437,216.016 209.463,216.016 209.905 C 216.016 210.212,216.288 210.568,216.622 210.696 C 217.021 210.849,217.144 210.763,216.984 210.445 C 216.849 210.179,217.010 210.294,217.341 210.702 C 217.673 211.110,217.840 211.611,217.714 211.815 C 217.587 212.020,217.857 211.988,218.312 211.744 C 218.989 211.382,219.141 211.410,219.141 211.900 C 219.141 212.230,219.329 212.500,219.559 212.500 C 219.789 212.500,220.235 212.757,220.549 213.071 C 220.961 213.483,221.379 213.544,222.045 213.291 C 222.983 212.934,224.406 213.891,224.137 214.697 C 224.075 214.885,224.199 215.039,224.414 215.039 C 224.629 215.039,224.751 214.877,224.685 214.680 C 224.619 214.482,224.847 214.555,225.191 214.840 C 225.535 215.126,225.734 215.575,225.633 215.839 C 225.510 216.159,225.719 216.247,226.262 216.105 C 226.886 215.942,226.998 216.021,226.744 216.442 C 226.462 216.911,226.510 216.913,227.073 216.456 C 227.641 215.996,227.734 216.006,227.734 216.531 C 227.734 216.867,227.915 217.253,228.135 217.389 C 228.355 217.525,228.487 217.491,228.428 217.314 C 228.369 217.137,228.496 216.992,228.711 216.992 C 228.926 216.992,229.058 217.124,229.004 217.285 C 228.950 217.446,229.054 217.578,229.234 217.578 C 229.415 217.578,229.745 217.979,229.968 218.468 C 230.193 218.963,230.759 219.387,231.244 219.423 C 232.100 219.488,232.102 219.475,231.389 218.631 L 230.664 217.773 231.517 218.494 C 232.031 218.928,232.275 219.459,232.132 219.831 C 231.961 220.277,232.066 220.383,232.511 220.212 C 233.311 219.905,233.697 220.304,233.190 220.915 C 232.909 221.253,232.973 221.462,233.409 221.630 C 233.817 221.786,233.942 221.703,233.780 221.382 C 233.645 221.116,233.899 221.313,234.345 221.821 C 234.791 222.328,235.156 222.625,235.156 222.482 C 235.156 222.339,235.667 222.523,236.292 222.892 C 236.948 223.280,237.342 223.786,237.225 224.091 C 237.092 224.438,237.224 224.541,237.612 224.392 C 237.937 224.267,238.318 224.353,238.460 224.583 C 238.602 224.812,238.532 225.000,238.304 225.000 C 238.077 225.000,237.891 225.170,237.891 225.378 C 237.891 225.586,238.183 225.644,238.541 225.507 C 238.978 225.340,239.098 225.408,238.908 225.715 C 238.739 225.989,238.869 226.172,239.235 226.172 C 239.570 226.172,239.823 226.304,239.797 226.465 C 239.676 227.235,239.897 227.346,240.449 226.794 C 241.058 226.186,242.773 226.712,242.360 227.381 C 242.267 227.530,242.455 227.753,242.776 227.876 C 243.097 228.000,243.359 228.317,243.359 228.581 C 243.359 228.956,243.255 228.958,242.891 228.594 C 242.263 227.966,241.927 228.003,241.927 228.699 C 241.927 229.062,242.225 229.223,242.741 229.138 C 243.188 229.065,243.774 229.180,244.043 229.394 C 244.312 229.608,244.531 229.668,244.531 229.526 C 244.531 229.385,244.867 229.449,245.277 229.669 C 245.769 229.932,245.953 230.335,245.819 230.850 C 245.706 231.280,245.466 231.540,245.285 231.428 C 245.104 231.317,245.053 230.923,245.171 230.554 C 245.349 229.998,245.317 229.981,244.981 230.456 C 244.568 231.040,245.120 232.197,245.654 231.867 C 246.064 231.613,248.511 232.769,248.297 233.115 C 248.189 233.289,248.430 233.456,248.833 233.487 C 249.353 233.526,249.504 233.351,249.355 232.884 C 249.182 232.343,249.216 232.326,249.545 232.791 C 249.815 233.172,249.817 233.596,249.553 234.091 C 249.210 234.730,249.254 234.774,249.894 234.432 C 250.321 234.203,250.857 234.180,251.174 234.376 C 251.475 234.562,251.888 234.611,252.092 234.484 C 252.297 234.358,252.337 234.460,252.182 234.712 C 252.026 234.963,251.692 235.044,251.438 234.892 C 251.184 234.740,251.224 234.921,251.527 235.294 C 251.830 235.668,252.314 235.883,252.602 235.772 C 252.889 235.662,253.125 235.736,253.125 235.938 C 253.125 236.139,253.389 236.202,253.711 236.079 C 254.088 235.934,254.297 236.087,254.297 236.508 C 254.297 236.997,254.506 237.096,255.127 236.899 C 255.686 236.721,255.870 236.776,255.690 237.068 C 255.446 237.462,255.993 237.647,257.292 237.610 C 257.543 237.603,257.682 237.943,257.601 238.365 C 257.472 239.033,257.537 239.065,258.099 238.609 C 258.615 238.190,258.682 238.188,258.435 238.599 C 257.973 239.368,259.320 240.625,260.607 240.625 C 261.219 240.625,261.719 240.763,261.719 240.932 C 261.719 241.102,262.070 241.266,262.500 241.299 C 262.930 241.331,263.281 241.193,263.281 240.991 C 263.281 240.790,263.457 240.625,263.672 240.625 C 263.887 240.625,264.034 240.757,263.998 240.918 C 263.963 241.079,264.067 241.682,264.229 242.257 C 264.581 243.506,265.650 244.127,265.328 242.895 C 265.141 242.179,265.208 242.146,265.989 242.564 C 266.467 242.820,267.152 242.927,267.511 242.803 C 268.085 242.604,268.081 242.641,267.480 243.109 C 266.528 243.850,266.627 244.120,267.776 243.911 C 268.430 243.793,268.722 243.899,268.655 244.230 C 268.600 244.503,268.855 244.703,269.223 244.675 C 269.591 244.646,269.854 244.734,269.809 244.870 C 269.764 245.006,269.840 245.117,269.979 245.117 C 270.117 245.117,270.583 245.436,271.014 245.826 C 271.599 246.356,271.872 246.415,272.092 246.059 C 272.292 245.735,272.223 245.683,271.875 245.898 C 271.529 246.112,271.458 246.062,271.654 245.745 C 271.858 245.415,272.090 245.396,272.434 245.681 C 272.703 245.904,273.048 245.962,273.201 245.809 C 273.354 245.657,273.363 245.834,273.221 246.203 C 273.018 246.733,273.179 246.875,273.982 246.875 C 274.588 246.875,275.000 247.093,275.000 247.415 C 275.000 247.713,275.362 248.050,275.804 248.166 C 276.471 248.340,276.527 248.280,276.136 247.808 C 275.734 247.324,275.812 247.297,276.674 247.624 C 277.228 247.835,277.738 247.864,277.806 247.689 C 277.874 247.514,278.281 247.510,278.711 247.681 C 279.373 247.945,279.388 247.996,278.809 248.019 C 278.433 248.035,278.125 248.218,278.125 248.428 C 278.125 248.675,278.476 248.675,279.124 248.429 C 279.785 248.178,280.041 248.181,279.882 248.439 C 279.746 248.659,280.076 248.828,280.641 248.828 C 281.191 248.828,281.641 248.652,281.641 248.438 C 281.641 248.223,281.827 248.047,282.054 248.047 C 282.282 248.047,282.341 248.253,282.186 248.504 C 281.993 248.816,282.121 248.877,282.589 248.698 C 283.078 248.510,283.334 248.660,283.480 249.217 C 283.593 249.648,283.861 250.000,284.075 250.000 C 284.290 250.000,284.374 249.648,284.262 249.218 C 284.149 248.788,284.217 248.535,284.411 248.655 C 284.606 248.776,284.766 248.688,284.766 248.461 C 284.766 248.233,284.590 248.047,284.375 248.047 C 284.160 248.047,283.987 247.739,283.990 247.363 C 283.995 246.779,284.051 246.765,284.375 247.266 C 284.808 247.935,284.919 236.682,284.513 233.301 C 284.317 231.672,284.120 231.250,283.559 231.250 C 283.170 231.250,282.684 230.951,282.479 230.585 C 282.166 230.026,282.008 230.002,281.487 230.434 C 281.147 230.717,280.937 231.060,281.022 231.197 C 281.107 231.334,280.300 231.434,279.229 231.418 C 277.992 231.401,277.156 231.187,276.938 230.835 C 276.665 230.393,276.496 230.379,276.110 230.765 C 275.359 231.516,274.926 231.338,275.391 230.469 C 275.707 229.877,275.687 229.680,275.307 229.655 C 273.560 229.542,272.935 229.359,272.626 228.871 C 272.435 228.568,272.275 228.442,272.272 228.590 C 272.268 228.739,271.795 228.616,271.219 228.317 C 270.644 228.019,270.029 227.864,269.852 227.973 C 269.676 228.082,269.519 227.765,269.504 227.269 C 269.478 226.417,269.458 226.410,269.141 227.148 C 268.956 227.578,268.793 227.700,268.777 227.418 C 268.762 227.137,268.571 227.017,268.353 227.152 C 268.135 227.287,268.057 227.561,268.181 227.761 C 268.304 227.961,268.313 228.125,268.201 228.125 C 268.088 228.125,267.797 227.752,267.553 227.297 C 267.283 226.792,267.267 226.565,267.512 226.717 C 267.734 226.854,268.018 226.798,268.145 226.593 C 268.277 226.379,267.957 226.297,267.391 226.399 C 266.769 226.512,266.396 226.395,266.379 226.082 C 266.364 225.809,266.200 225.938,266.016 226.367 C 265.729 227.035,265.676 227.049,265.652 226.465 C 265.637 226.089,265.439 225.781,265.211 225.781 C 264.984 225.781,264.905 225.607,265.036 225.395 C 265.169 225.180,265.025 225.105,264.709 225.226 C 264.390 225.349,263.889 225.080,263.559 224.608 C 263.136 224.005,262.917 223.916,262.768 224.289 C 262.600 224.709,262.556 224.710,262.531 224.293 C 262.514 224.012,262.324 223.891,262.109 224.023 C 261.895 224.156,261.719 223.980,261.719 223.633 C 261.719 223.231,261.897 223.108,262.207 223.294 C 262.539 223.493,262.523 223.376,262.159 222.927 C 261.864 222.563,261.425 222.268,261.183 222.272 C 260.940 222.275,261.006 222.448,261.328 222.656 C 261.696 222.894,261.738 223.037,261.440 223.041 C 261.179 223.044,260.772 222.687,260.537 222.247 C 260.232 221.677,259.881 221.519,259.316 221.698 C 258.770 221.872,258.354 221.707,257.976 221.167 C 257.593 220.620,257.162 220.453,256.546 220.611 C 255.731 220.821,255.708 220.784,256.250 220.117 C 256.793 219.449,256.769 219.413,255.933 219.629 C 255.344 219.780,254.956 219.669,254.818 219.308 C 254.701 219.004,254.450 218.850,254.260 218.968 C 254.071 219.085,254.020 218.908,254.148 218.575 C 254.296 218.190,254.152 217.951,253.753 217.920 C 252.368 217.812,252.152 217.719,252.246 217.267 C 252.300 217.009,252.122 216.797,251.852 216.797 C 251.581 216.797,251.131 216.431,250.851 215.983 C 250.572 215.535,250.102 215.261,249.808 215.374 C 249.459 215.508,249.317 215.346,249.401 214.910 C 249.481 214.498,249.150 214.060,248.546 213.775 C 247.584 213.321,247.577 213.328,248.255 214.077 C 248.637 214.499,248.835 214.844,248.696 214.844 C 248.556 214.844,247.914 214.114,247.268 213.223 C 246.622 212.331,246.094 211.798,246.094 212.039 C 246.094 212.279,245.830 212.374,245.508 212.251 C 245.186 212.127,244.922 211.771,244.922 211.459 C 244.922 211.147,244.746 211.000,244.531 211.133 C 244.316 211.266,244.141 211.095,244.141 210.753 C 244.141 210.411,243.833 210.015,243.457 209.873 C 243.081 209.731,242.540 209.383,242.254 209.100 C 241.968 208.818,241.584 208.679,241.402 208.792 C 241.219 208.905,240.942 208.791,240.787 208.540 C 240.610 208.254,240.674 208.187,240.955 208.361 C 241.203 208.514,241.406 208.454,241.406 208.226 C 241.406 207.999,241.044 207.813,240.602 207.813 C 240.160 207.813,239.891 207.661,240.005 207.477 C 240.119 207.292,239.765 207.190,239.217 207.250 C 238.508 207.328,238.281 207.206,238.427 206.825 C 238.556 206.489,238.434 206.366,238.101 206.493 C 237.793 206.612,237.463 206.357,237.314 205.888 C 237.063 205.098,236.678 204.911,235.605 205.058 C 235.315 205.098,235.194 204.943,235.335 204.714 C 235.477 204.484,235.421 204.297,235.212 204.297 C 235.002 204.297,234.742 204.517,234.634 204.785 C 234.499 205.120,234.426 205.089,234.403 204.688 C 234.384 204.365,233.931 203.898,233.395 203.650 C 232.658 203.308,232.476 203.308,232.646 203.650 C 232.769 203.898,232.620 203.797,232.315 203.424 C 232.009 203.051,231.657 202.848,231.534 202.972 C 231.410 203.095,230.988 202.991,230.596 202.741 C 229.907 202.300,229.907 202.292,230.599 202.510 C 231.068 202.657,231.258 202.566,231.150 202.246 C 231.060 201.978,230.609 201.779,230.150 201.804 C 229.690 201.829,229.397 201.716,229.499 201.552 C 229.600 201.388,229.381 201.138,229.013 200.996 C 228.434 200.774,228.421 200.684,228.917 200.333 C 229.395 199.995,229.379 199.963,228.821 200.141 C 228.452 200.260,228.044 200.186,227.915 199.977 C 227.786 199.768,227.517 199.698,227.317 199.821 C 227.117 199.945,226.953 199.850,226.953 199.609 C 226.953 199.369,226.819 199.255,226.656 199.356 C 226.492 199.457,226.009 199.268,225.582 198.936 C 224.862 198.377,224.859 198.351,225.544 198.589 C 226.158 198.803,226.202 198.750,225.808 198.274 C 225.547 197.960,225.083 197.799,224.776 197.917 C 224.470 198.034,224.219 197.925,224.219 197.675 C 224.219 197.424,224.013 197.347,223.762 197.502 C 223.443 197.699,223.391 197.559,223.590 197.037 C 223.810 196.458,223.769 196.394,223.408 196.752 C 222.897 197.259,221.875 196.563,221.875 195.708 C 221.875 195.465,221.719 195.363,221.529 195.480 C 221.338 195.598,220.965 195.433,220.700 195.113 C 220.315 194.649,220.319 194.531,220.720 194.531 C 220.997 194.531,221.118 194.426,220.990 194.297 C 220.861 194.168,220.527 194.204,220.248 194.376 C 219.346 194.933,218.418 194.832,218.659 194.204 C 218.789 193.866,218.716 193.725,218.485 193.868 C 218.266 194.003,217.668 193.724,217.157 193.248 C 216.645 192.772,216.078 192.431,215.896 192.490 C 215.715 192.549,215.656 192.453,215.766 192.276 C 216.011 191.879,215.704 191.437,214.484 190.430 C 213.963 190.000,213.666 189.868,213.823 190.137 C 213.980 190.405,213.922 190.625,213.695 190.625 C 213.467 190.625,213.281 190.791,213.281 190.993 C 213.281 191.196,213.619 191.296,214.032 191.217 C 214.444 191.137,214.880 191.327,214.999 191.639 C 215.180 192.111,215.071 192.128,214.347 191.740 C 213.868 191.484,213.389 191.302,213.281 191.335 C 213.174 191.369,213.083 191.003,213.079 190.522 C 213.072 189.779,212.859 189.648,211.651 189.648 C 210.870 189.648,210.329 189.489,210.450 189.294 C 210.570 189.099,210.280 189.041,209.804 189.166 C 209.141 189.339,209.034 189.277,209.347 188.901 C 209.667 188.516,209.368 188.445,207.961 188.571 C 206.791 188.675,206.254 188.591,206.416 188.328 C 206.554 188.106,206.968 188.029,207.337 188.156 C 207.893 188.347,207.881 188.287,207.265 187.807 C 206.816 187.458,206.641 187.034,206.823 186.739 C 207.059 186.359,206.947 186.345,206.323 186.680 C 205.243 187.258,205.083 187.226,205.047 186.426 C 205.029 186.017,204.937 185.939,204.819 186.230 C 204.711 186.499,204.451 186.719,204.241 186.719 C 204.032 186.719,203.969 186.543,204.102 186.328 C 204.234 186.113,204.144 185.938,203.901 185.938 C 203.129 185.938,202.275 184.864,202.836 184.598 C 203.102 184.471,202.759 184.451,202.073 184.552 C 201.098 184.697,200.774 184.577,200.593 184.006 C 200.268 182.982,199.154 182.634,198.715 183.420 C 198.411 183.963,198.243 183.871,197.595 182.806 C 197.176 182.116,196.725 181.661,196.593 181.793 C 196.461 181.925,196.001 181.725,195.571 181.349 C 194.825 180.695,194.801 180.696,195.046 181.368 C 195.200 181.789,195.148 181.976,194.917 181.833 C 194.705 181.702,194.531 181.274,194.531 180.882 C 194.531 180.486,194.166 180.074,193.711 179.955 C 193.159 179.810,192.992 179.572,193.200 179.226 C 193.454 178.802,193.398 178.801,192.883 179.218 C 192.455 179.565,192.176 179.594,192.000 179.309 C 191.859 179.081,191.579 178.995,191.379 179.118 C 191.179 179.242,191.016 179.173,191.016 178.965 C 191.016 178.758,190.137 178.363,189.063 178.087 C 187.988 177.812,187.109 177.434,187.109 177.247 C 187.109 177.060,187.285 177.016,187.500 177.148 C 187.715 177.281,187.891 177.298,187.891 177.185 C 187.891 177.073,187.543 176.795,187.118 176.567 C 186.467 176.219,186.377 176.263,186.544 176.846 C 186.664 177.263,186.565 177.203,186.297 176.696 C 185.952 176.046,185.548 175.877,184.527 175.958 C 183.799 176.016,183.203 175.912,183.203 175.727 C 183.203 175.542,183.389 175.391,183.617 175.391 C 183.844 175.391,183.936 175.238,183.821 175.052 C 183.706 174.866,183.194 174.794,182.682 174.892 C 181.696 175.080,181.016 174.162,181.507 173.305 C 181.649 173.055,181.622 172.982,181.446 173.141 C 181.270 173.300,180.892 173.236,180.606 172.999 C 180.205 172.666,180.009 172.776,179.747 173.484 L 179.407 174.401 179.122 173.500 C 178.952 172.967,178.622 172.682,178.310 172.801 C 178.021 172.912,177.350 172.661,176.819 172.244 C 176.288 171.826,175.651 171.484,175.404 171.484 C 175.154 171.484,175.079 171.267,175.235 170.996 C 175.389 170.728,175.372 170.638,175.196 170.797 C 175.020 170.957,174.607 170.869,174.277 170.602 C 173.780 170.200,173.737 170.217,174.023 170.703 C 174.320 171.207,174.277 171.215,173.713 170.757 C 173.352 170.464,172.766 170.337,172.411 170.473 C 171.884 170.675,171.851 170.617,172.233 170.157 C 172.620 169.690,172.562 169.629,171.897 169.803 C 171.358 169.944,171.094 169.826,171.094 169.444 C 171.094 169.131,170.646 168.671,170.099 168.422 C 168.800 167.830,168.734 167.844,168.994 168.652 C 169.159 169.164,169.121 169.205,168.841 168.814 C 168.635 168.527,168.355 168.308,168.218 168.326 C 167.568 168.413,167.515 168.320,167.931 167.819 C 168.277 167.402,168.243 167.226,167.783 167.050 C 167.456 166.924,167.188 166.992,167.188 167.200 C 167.188 167.408,167.001 167.578,166.774 167.578 C 166.546 167.578,166.487 167.372,166.643 167.121 C 166.837 166.807,166.705 166.749,166.220 166.935 C 165.619 167.165,165.589 167.116,166.016 166.602 C 166.437 166.094,166.416 166.036,165.886 166.240 C 165.532 166.375,164.966 166.194,164.600 165.828 C 164.240 165.468,163.611 165.261,163.201 165.369 C 162.603 165.525,162.544 165.457,162.903 165.024 C 163.263 164.590,163.192 164.515,162.541 164.641 C 162.070 164.731,161.557 164.521,161.316 164.137 C 160.976 163.596,160.942 163.654,161.130 164.453 C 161.353 165.396,161.343 165.401,160.856 164.608 C 160.579 164.156,160.107 163.871,159.809 163.975 C 159.505 164.081,159.375 163.987,159.514 163.763 C 159.733 163.408,158.926 162.821,158.091 162.729 C 157.922 162.710,157.598 162.432,157.371 162.109 C 157.024 161.617,156.993 161.633,157.177 162.207 M158.105 163.591 C 157.729 163.667,157.422 164.009,157.422 164.352 C 157.422 164.694,157.318 164.870,157.191 164.743 C 156.678 164.230,157.461 162.930,158.125 163.192 C 158.742 163.435,158.741 163.463,158.105 163.591 M202.930 203.125 C 202.618 203.629,203.037 204.306,203.636 204.266 C 203.995 204.242,203.995 204.192,203.635 204.045 C 203.379 203.941,203.266 203.603,203.384 203.295 C 203.629 202.658,203.295 202.533,202.930 203.125 " stroke="none" fill="#5662ea" fill-rule="evenodd"></path></g></svg>